<svg width="24" height="24" viewBox="0 0 24 24" fill="none" xmlns="http://www.w3.org/2000/svg">
<path d="M20.3447 12.7852L12.5658 3.82032C12.4954 3.7392 12.4085 3.67414 12.3109 3.62955C12.2132 3.58497 12.1071 3.56189 11.9998 3.56189C11.8924 3.56189 11.7863 3.58497 11.6886 3.62955C11.591 3.67414 11.5041 3.7392 11.4337 3.82032L3.65717 12.7852C3.63367 12.8122 3.61844 12.8454 3.61328 12.8808C3.60812 12.9163 3.61325 12.9524 3.62807 12.985C3.64289 13.0176 3.66677 13.0453 3.69686 13.0647C3.72695 13.0841 3.76199 13.0945 3.7978 13.0945H5.69624C5.80405 13.0945 5.90717 13.0477 5.97983 12.9656L11.1103 7.05235V20.25C11.1103 20.3531 11.1947 20.4375 11.2978 20.4375H12.704C12.8072 20.4375 12.8915 20.3531 12.8915 20.25V7.05235L18.022 12.9656C18.0923 13.0477 18.1955 13.0945 18.3056 13.0945H20.204C20.3634 13.0945 20.4501 12.907 20.3447 12.7852Z" fill="#F77E23"/>
</svg>
