<svg width="41" height="41" viewBox="0 0 41 41" fill="none" xmlns="http://www.w3.org/2000/svg">
<rect width="41" height="41" rx="20.5" fill="#FFE7DB"/>
<path d="M15.2282 16.4001V12.8858C15.2282 12.2645 15.4751 11.6685 15.9144 11.2292C16.3538 10.7898 16.9497 10.543 17.5711 10.543H22.2568C22.8782 10.543 23.4741 10.7898 23.9135 11.2292C24.3528 11.6685 24.5997 12.2645 24.5997 12.8858V16.4001H28.114C28.7353 16.4001 29.3312 16.6469 29.7706 17.0863C30.21 17.5257 30.4568 18.1216 30.4568 18.743V29.2858C30.4568 29.9072 30.21 30.5031 29.7706 30.9425C29.3312 31.3818 28.7353 31.6287 28.114 31.6287H11.714C11.0926 31.6287 10.4967 31.3818 10.0573 30.9425C9.61793 30.5031 9.37109 29.9072 9.37109 29.2858V18.743C9.37109 18.1216 9.61793 17.5257 10.0573 17.0863C10.4967 16.6469 11.0926 16.4001 11.714 16.4001H15.2282ZM11.714 18.743V29.2858H28.114V18.743H24.5973V22.2573H22.2568V18.743H17.5711V22.2573H15.2282V18.743H11.714ZM17.5711 16.4001H22.2568V12.8858H17.5711V16.4001Z" fill="#F77E23"/>
</svg>
