<svg width="24" height="24" viewBox="0 0 24 24" fill="none" xmlns="http://www.w3.org/2000/svg">
<path d="M21.1594 16.13L19.1594 14.98L20.0494 14.74C20.1801 14.7095 20.3033 14.6531 20.4118 14.574C20.5202 14.4949 20.6116 14.3948 20.6805 14.2797C20.7494 14.1645 20.7945 14.0367 20.813 13.9037C20.8314 13.7708 20.823 13.6355 20.788 13.5059C20.7531 13.3763 20.6925 13.2551 20.6097 13.1495C20.527 13.0438 20.4238 12.9559 20.3064 12.8909C20.1889 12.826 20.0596 12.7854 19.9261 12.7715C19.7926 12.7576 19.6577 12.7707 19.5294 12.81L16.7094 13.57L13.9994 12L16.7094 10.43L19.5294 11.19H19.7894C20.0546 11.2245 20.3226 11.1522 20.5346 10.989C20.7465 10.8259 20.8849 10.5852 20.9194 10.32C20.9539 10.0548 20.8816 9.78673 20.7184 9.57482C20.5553 9.3629 20.3146 9.22448 20.0494 9.19L19.1594 9L21.1594 7.85C21.2736 7.78434 21.3738 7.69682 21.4543 7.59243C21.5347 7.48805 21.5938 7.36885 21.6281 7.24163C21.6625 7.11441 21.6714 6.98168 21.6545 6.85099C21.6376 6.72031 21.595 6.59425 21.5294 6.48C21.4637 6.36575 21.3762 6.26555 21.2718 6.18513C21.1674 6.1047 21.0482 6.04562 20.921 6.01126C20.7938 5.97691 20.6611 5.96794 20.5304 5.98488C20.3997 6.00182 20.2736 6.04434 20.1594 6.11L17.9994 7.37L18.2994 6.26C18.3387 6.13169 18.3518 5.99677 18.3379 5.86328C18.324 5.7298 18.2834 5.60048 18.2184 5.48303C18.1535 5.36558 18.0656 5.2624 17.9599 5.17965C17.8543 5.09689 17.733 5.03625 17.6035 5.00133C17.4739 4.96642 17.3386 4.95795 17.2056 4.97642C17.0727 4.9949 16.9449 5.03994 16.8297 5.10886C16.7146 5.17779 16.6145 5.26919 16.5354 5.37762C16.4563 5.48605 16.3998 5.60929 16.3694 5.74L15.5494 8.74L12.9994 10.27V7.14L15.0694 5.07C15.2556 4.88264 15.3602 4.62919 15.3602 4.365C15.3602 4.10081 15.2556 3.84736 15.0694 3.66C14.9764 3.56627 14.8658 3.49188 14.744 3.44111C14.6221 3.39034 14.4914 3.3642 14.3594 3.3642C14.2274 3.3642 14.0967 3.39034 13.9748 3.44111C13.8529 3.49188 13.7423 3.56627 13.6494 3.66L12.9994 4.31V2C12.9994 1.73478 12.894 1.48043 12.7065 1.29289C12.519 1.10536 12.2646 1 11.9994 1C11.7342 1 11.4798 1.10536 11.2923 1.29289C11.1047 1.48043 10.9994 1.73478 10.9994 2V4.47L10.1894 3.66C10.0964 3.56627 9.98582 3.49188 9.86396 3.44111C9.7421 3.39034 9.61139 3.3642 9.47938 3.3642C9.34737 3.3642 9.21666 3.39034 9.09481 3.44111C8.97295 3.49188 8.86235 3.56627 8.76938 3.66C8.58313 3.84736 8.47859 4.10081 8.47859 4.365C8.47859 4.62919 8.58313 4.88264 8.76938 5.07L10.9994 7.3V10.3L8.42938 8.78L7.60938 5.78C7.57893 5.64929 7.52248 5.52605 7.44339 5.41762C7.36431 5.30919 7.26421 5.21779 7.14905 5.14886C7.0339 5.07994 6.90604 5.03489 6.77312 5.01642C6.64019 4.99795 6.5049 5.00642 6.37531 5.04133C6.24572 5.07625 6.12449 5.13689 6.01884 5.21965C5.91318 5.3024 5.82527 5.40558 5.76033 5.52303C5.69539 5.64048 5.65475 5.7698 5.64085 5.90328C5.62694 6.03677 5.64005 6.17169 5.67938 6.3L5.99938 7.37L3.83938 6.13C3.72513 6.06434 3.59907 6.02182 3.46839 6.00488C3.33771 5.98794 3.20497 5.99691 3.07775 6.03126C2.95054 6.06562 2.83133 6.1247 2.72695 6.20513C2.62256 6.28555 2.53504 6.38575 2.46938 6.5C2.40372 6.61425 2.36121 6.74031 2.34426 6.871C2.32732 7.00168 2.33629 7.13441 2.37065 7.26163C2.44003 7.51855 2.60864 7.73739 2.83938 7.87L4.83938 9L3.99938 9.26C3.73417 9.29448 3.49351 9.4329 3.33035 9.64482C3.16719 9.85673 3.0949 10.1248 3.12938 10.39C3.16386 10.6552 3.30228 10.8959 3.5142 11.059C3.72611 11.2222 3.99417 11.2945 4.25938 11.26H4.51938L7.33938 10.5L9.99938 12L7.28938 13.57L4.46938 12.81C4.33706 12.7609 4.19584 12.7403 4.05501 12.7497C3.91417 12.759 3.77691 12.7981 3.65225 12.8643C3.5276 12.9305 3.41837 13.0223 3.33174 13.1338C3.24512 13.2452 3.18307 13.3737 3.14968 13.5108C3.11628 13.648 3.11229 13.7906 3.13798 13.9294C3.16366 14.0682 3.21844 14.2 3.2987 14.3161C3.37896 14.4322 3.48289 14.53 3.60366 14.6031C3.72442 14.6761 3.85929 14.7228 3.99938 14.74L4.88938 14.98L2.88938 16.13C2.65864 16.2626 2.49003 16.4814 2.42065 16.7384C2.35126 16.9953 2.38677 17.2693 2.51938 17.5C2.65199 17.7307 2.87083 17.8993 3.12775 17.9687C3.38468 18.0381 3.65864 18.0026 3.88938 17.87L5.99938 16.63L5.69938 17.74C5.65974 17.868 5.64623 18.0027 5.65966 18.136C5.67308 18.2693 5.71317 18.3986 5.77753 18.5161C5.84189 18.6337 5.92922 18.7371 6.03433 18.8202C6.13944 18.9033 6.26018 18.9645 6.38938 19C6.47577 19.0098 6.56299 19.0098 6.64938 19C6.87514 19.0077 7.09687 18.9388 7.27846 18.8044C7.46004 18.6701 7.59078 18.4782 7.64938 18.26L8.46938 15.26L10.9994 13.73V16.86L8.92938 18.93C8.74313 19.1174 8.63859 19.3708 8.63859 19.635C8.63859 19.8992 8.74313 20.1526 8.92938 20.34C9.022 20.4345 9.13244 20.5097 9.25432 20.5612C9.37619 20.6127 9.50707 20.6395 9.63938 20.64C9.77169 20.6395 9.90257 20.6127 10.0244 20.5612C10.1463 20.5097 10.2568 20.4345 10.3494 20.34L10.9994 19.69V22C10.9994 22.2652 11.1047 22.5196 11.2923 22.7071C11.4798 22.8946 11.7342 23 11.9994 23C12.2646 23 12.519 22.8946 12.7065 22.7071C12.894 22.5196 12.9994 22.2652 12.9994 22V19.53L13.8094 20.34C13.9023 20.4337 14.0129 20.5081 14.1348 20.5589C14.2567 20.6097 14.3874 20.6358 14.5194 20.6358C14.6514 20.6358 14.7821 20.6097 14.904 20.5589C15.0258 20.5081 15.1364 20.4337 15.2294 20.34C15.4156 20.1526 15.5202 19.8992 15.5202 19.635C15.5202 19.3708 15.4156 19.1174 15.2294 18.93L12.9994 16.7V13.7L15.5694 15.19L16.3894 18.19C16.448 18.4082 16.5787 18.6001 16.7603 18.7344C16.9419 18.8688 17.1636 18.9377 17.3894 18.93C17.4758 18.9398 17.563 18.9398 17.6494 18.93C17.7771 18.8964 17.8968 18.8378 18.0017 18.7576C18.1066 18.6774 18.1946 18.5773 18.2607 18.4629C18.3267 18.3486 18.3694 18.2223 18.3863 18.0913C18.4033 17.9604 18.3941 17.8274 18.3594 17.7L17.9994 16.63L20.1394 17.87C20.2536 17.9357 20.3797 17.9782 20.5104 17.9951C20.6411 18.0121 20.7738 18.0031 20.901 17.9687C21.0282 17.9344 21.1474 17.8753 21.2518 17.7949C21.3562 17.7144 21.4437 17.6143 21.5094 17.5C21.575 17.3857 21.6176 17.2597 21.6345 17.129C21.6514 16.9983 21.6425 16.8656 21.6081 16.7384C21.5738 16.6112 21.5147 16.492 21.4343 16.3876C21.3538 16.2832 21.2536 16.1957 21.1394 16.13H21.1594Z" fill="#404040" fill-opacity="0.8"/>
</svg>
